<svg xmlns="http://www.w3.org/2000/svg" xmlns:xlink="http://www.w3.org/1999/xlink" width="1920" height="1080" viewBox="0 0 1920 1080"><rect width="100%" height="100%" fill="#DDDDDD"/><path d="M445.45 595.68L472.36 595.68L472.36 614.83L389.56 614.83L389.56 595.68L419.89 595.68L419.89 508.43Q419.89 503.26 420.20 497.77L420.20 497.77L398.67 515.78Q396.80 517.23 394.99 517.59Q393.18 517.95 391.58 517.64Q389.97 517.33 388.73 516.56Q387.49 515.78 386.87 514.85L386.87 514.85L378.80 503.78L424.44 464.96L445.45 464.96L445.45 595.68ZM519.45 510.09L519.45 510.09Q519.45 522.61 525.92 529.18Q532.39 535.76 544.29 535.76L544.29 535.76Q550.50 535.76 555.37 533.79Q560.23 531.82 563.54 528.41Q566.86 524.99 568.56 520.34Q570.27 515.68 570.27 510.30L570.27 510.30Q570.27 504.19 568.41 499.38Q566.54 494.56 563.13 491.25Q559.71 487.94 555.00 486.18Q550.30 484.42 544.71 484.42L544.71 484.42Q538.91 484.42 534.25 486.34Q529.60 488.25 526.28 491.67Q522.97 495.08 521.21 499.79Q519.45 504.50 519.45 510.09ZM506.93 614.83L553.40 556.77Q555.16 554.59 556.71 552.52Q558.26 550.45 559.71 548.38L559.71 548.38Q554.54 551.70 548.33 553.40Q542.12 555.11 535.29 555.11L535.29 555.11Q527.53 555.11 520.07 552.42Q512.62 549.73 506.83 544.30Q501.03 538.86 497.46 530.84Q493.89 522.82 493.89 512.06L493.89 512.06Q493.89 502.02 497.61 493.22Q501.34 484.42 508.07 477.80Q514.79 471.17 524.21 467.34Q533.63 463.51 545.02 463.51L545.02 463.51Q556.51 463.51 565.66 467.14Q574.82 470.76 581.29 477.28Q587.76 483.80 591.23 492.91Q594.70 502.02 594.70 512.88L594.70 512.88Q594.70 519.82 593.51 526.03Q592.32 532.24 590.14 537.98Q587.97 543.73 584.86 549.21Q581.76 554.70 577.93 560.08L577.93 560.08L543.67 608.93Q541.91 611.42 538.39 613.12Q534.87 614.83 530.42 614.83L530.42 614.83L506.93 614.83ZM668.49 591.03L706.89 591.03Q711.03 591.03 713.46 593.35Q715.90 595.68 715.90 599.51L715.90 599.51L715.90 614.83L613.22 614.83L613.22 606.34Q613.22 603.76 614.31 600.91Q615.40 598.06 617.78 595.79L617.78 595.79L663.21 550.25Q668.91 544.45 673.41 539.17Q677.91 533.89 680.91 528.72Q683.91 523.54 685.52 518.21Q687.12 512.88 687.12 506.98L687.12 506.98Q687.12 501.60 685.57 497.51Q684.02 493.43 681.17 490.63Q678.32 487.84 674.34 486.44Q670.36 485.04 665.39 485.04L665.39 485.04Q660.83 485.04 656.95 486.34Q653.07 487.63 650.07 489.96Q647.07 492.29 645.00 495.39Q642.93 498.50 641.89 502.22L641.89 502.22Q640.13 506.98 637.34 508.54Q634.54 510.09 629.27 509.26L629.27 509.26L615.81 506.88Q617.36 496.12 621.81 487.99Q626.26 479.87 632.94 474.43Q639.62 469.00 648.26 466.26Q656.90 463.51 666.84 463.51L666.84 463.51Q677.19 463.51 685.78 466.57Q694.37 469.62 700.47 475.21Q706.58 480.80 710.00 488.66Q713.41 496.53 713.41 506.16L713.41 506.16Q713.41 514.44 710.98 521.47Q708.55 528.51 704.46 534.93Q700.37 541.35 694.88 547.35Q689.40 553.35 683.40 559.56L683.40 559.56L649.66 594.03Q654.52 592.58 659.33 591.80Q664.15 591.03 668.49 591.03L668.49 591.03ZM840.30 540L840.30 540Q840.30 559.56 836.11 574.00Q831.92 588.44 824.52 597.86Q817.12 607.27 807.03 611.88Q796.94 616.49 785.24 616.49L785.24 616.49Q773.54 616.49 763.56 611.88Q753.57 607.27 746.22 597.86Q738.87 588.44 734.73 574.00Q730.59 559.56 730.59 540L730.59 540Q730.59 520.34 734.73 505.95Q738.87 491.56 746.22 482.14Q753.57 472.73 763.56 468.12Q773.54 463.51 785.24 463.51L785.24 463.51Q796.94 463.51 807.03 468.12Q817.12 472.73 824.52 482.14Q831.92 491.56 836.11 505.95Q840.30 520.34 840.30 540ZM813.91 540L813.91 540Q813.91 523.75 811.53 513.09Q809.15 502.43 805.16 496.12Q801.18 489.80 796.00 487.27Q790.83 484.73 785.24 484.73L785.24 484.73Q779.75 484.73 774.63 487.27Q769.51 489.80 765.58 496.12Q761.64 502.43 759.31 513.09Q756.98 523.75 756.98 540L756.98 540Q756.98 556.25 759.31 566.91Q761.64 577.57 765.58 583.88Q769.51 590.20 774.63 592.73Q779.75 595.27 785.24 595.27L785.24 595.27Q790.83 595.27 796.00 592.73Q801.18 590.20 805.16 583.88Q809.15 577.57 811.53 566.91Q813.91 556.25 813.91 540ZM1004.66 580.57L991.10 593.92L956.02 558.84L920.62 594.13L907.06 580.78L942.46 545.28L908.72 511.54L922.17 498.08L955.91 531.82L989.45 498.29L1003.11 511.74L969.47 545.38L1004.66 580.57ZM1146.35 595.68L1173.26 595.68L1173.26 614.83L1090.46 614.83L1090.46 595.68L1120.79 595.68L1120.79 508.43Q1120.79 503.26 1121.10 497.77L1121.10 497.77L1099.57 515.78Q1097.71 517.23 1095.90 517.59Q1094.08 517.95 1092.48 517.64Q1090.88 517.33 1089.63 516.56Q1088.39 515.78 1087.77 514.85L1087.77 514.85L1079.70 503.78L1125.34 464.96L1146.35 464.96L1146.35 595.68ZM1301.08 540L1301.08 540Q1301.08 559.56 1296.89 574.00Q1292.70 588.44 1285.30 597.86Q1277.90 607.27 1267.81 611.88Q1257.72 616.49 1246.02 616.49L1246.02 616.49Q1234.33 616.49 1224.34 611.88Q1214.35 607.27 1207.00 597.86Q1199.65 588.44 1195.51 574.00Q1191.37 559.56 1191.37 540L1191.37 540Q1191.37 520.34 1195.51 505.95Q1199.65 491.56 1207.00 482.14Q1214.35 472.73 1224.34 468.12Q1234.33 463.51 1246.02 463.51L1246.02 463.51Q1257.72 463.51 1267.81 468.12Q1277.90 472.73 1285.30 482.14Q1292.70 491.56 1296.89 505.95Q1301.08 520.34 1301.08 540ZM1274.69 540L1274.69 540Q1274.69 523.75 1272.31 513.09Q1269.93 502.43 1265.95 496.12Q1261.96 489.80 1256.79 487.27Q1251.61 484.73 1246.02 484.73L1246.02 484.73Q1240.54 484.73 1235.41 487.27Q1230.29 489.80 1226.36 496.12Q1222.42 502.43 1220.10 513.09Q1217.77 523.75 1217.77 540L1217.77 540Q1217.77 556.25 1220.10 566.91Q1222.42 577.57 1226.36 583.88Q1230.29 590.20 1235.41 592.73Q1240.54 595.27 1246.02 595.27L1246.02 595.27Q1251.61 595.27 1256.79 592.73Q1261.96 590.20 1265.95 583.88Q1269.93 577.57 1272.31 566.91Q1274.69 556.25 1274.69 540ZM1366.29 596.51L1366.29 596.51Q1372.60 596.51 1377.36 594.70Q1382.12 592.89 1385.38 589.68Q1388.65 586.47 1390.30 582.02Q1391.96 577.57 1391.96 572.40L1391.96 572.40Q1391.96 560.08 1385.13 553.77Q1378.30 547.45 1366.29 547.45L1366.29 547.45Q1354.28 547.45 1347.45 553.77Q1340.62 560.08 1340.62 572.40L1340.62 572.40Q1340.62 577.57 1342.28 582.02Q1343.93 586.47 1347.19 589.68Q1350.45 592.89 1355.21 594.70Q1359.98 596.51 1366.29 596.51ZM1366.29 482.76L1366.29 482.76Q1360.60 482.76 1356.46 484.52Q1352.32 486.28 1349.57 489.23Q1346.83 492.18 1345.54 496.01Q1344.24 499.84 1344.24 504.09L1344.24 504.09Q1344.24 508.54 1345.33 512.73Q1346.42 516.92 1349.00 520.18Q1351.59 523.44 1355.84 525.41Q1360.08 527.37 1366.29 527.37L1366.29 527.37Q1372.50 527.37 1376.74 525.41Q1380.99 523.44 1383.57 520.18Q1386.16 516.92 1387.25 512.73Q1388.33 508.54 1388.33 504.09L1388.33 504.09Q1388.33 499.84 1386.99 496.01Q1385.64 492.18 1382.95 489.23Q1380.26 486.28 1376.12 484.52Q1371.98 482.76 1366.29 482.76ZM1391.54 536.79L1391.54 536.79Q1405.21 541.24 1411.73 550.40Q1418.25 559.56 1418.25 572.81L1418.25 572.81Q1418.25 582.75 1414.47 590.82Q1410.69 598.89 1403.86 604.58Q1397.03 610.28 1387.46 613.38Q1377.88 616.49 1366.29 616.49L1366.29 616.49Q1354.70 616.49 1345.12 613.38Q1335.55 610.28 1328.72 604.58Q1321.89 598.89 1318.11 590.82Q1314.33 582.75 1314.33 572.81L1314.33 572.81Q1314.33 559.56 1320.85 550.40Q1327.37 541.24 1341.04 536.79L1341.04 536.79Q1330.17 532.24 1324.73 523.85Q1319.30 515.47 1319.30 503.67L1319.30 503.67Q1319.30 495.18 1322.77 487.84Q1326.23 480.49 1332.44 475.05Q1338.65 469.62 1347.30 466.57Q1355.94 463.51 1366.29 463.51L1366.29 463.51Q1376.64 463.51 1385.28 466.57Q1393.92 469.62 1400.13 475.05Q1406.34 480.49 1409.81 487.84Q1413.28 495.18 1413.28 503.67L1413.28 503.67Q1413.28 515.47 1407.84 523.85Q1402.41 532.24 1391.54 536.79ZM1541.20 540L1541.20 540Q1541.20 559.56 1537.01 574.00Q1532.82 588.44 1525.42 597.86Q1518.02 607.27 1507.93 611.88Q1497.84 616.49 1486.14 616.49L1486.14 616.49Q1474.45 616.49 1464.46 611.88Q1454.47 607.27 1447.12 597.86Q1439.77 588.44 1435.63 574.00Q1431.49 559.56 1431.49 540L1431.49 540Q1431.49 520.34 1435.63 505.95Q1439.77 491.56 1447.12 482.14Q1454.47 472.73 1464.46 468.12Q1474.45 463.51 1486.14 463.51L1486.14 463.51Q1497.84 463.51 1507.93 468.12Q1518.02 472.73 1525.42 482.14Q1532.82 491.56 1537.01 505.95Q1541.20 520.34 1541.20 540ZM1514.81 540L1514.81 540Q1514.81 523.75 1512.43 513.09Q1510.05 502.43 1506.07 496.12Q1502.08 489.80 1496.91 487.27Q1491.73 484.73 1486.14 484.73L1486.14 484.73Q1480.66 484.73 1475.53 487.27Q1470.41 489.80 1466.48 496.12Q1462.54 502.43 1460.22 513.09Q1457.89 523.75 1457.89 540L1457.89 540Q1457.89 556.25 1460.22 566.91Q1462.54 577.57 1466.48 583.88Q1470.41 590.20 1475.53 592.73Q1480.66 595.27 1486.14 595.27L1486.14 595.27Q1491.73 595.27 1496.91 592.73Q1502.08 590.20 1506.07 583.88Q1510.05 577.57 1512.43 566.91Q1514.81 556.25 1514.81 540Z" fill="#999999"/></svg>